<svg width="400" height="400" viewBox="0 0 400 400" fill="none" xmlns="http://www.w3.org/2000/svg">
<g clip-path="url(#clip0_6_2)">
<line x1="49.5" y1="400" x2="49.5" stroke="rgba(255,255,255,0.05)"/>
<line x1="-0.00250244" y1="49.5" x2="400.003" y2="49.5" stroke="rgba(255,255,255,0.05)"/>
<line y1="99.5" x2="400.005" y2="99.5" stroke="rgba(255,255,255,0.05)"/>
<line y1="149.5" x2="400.005" y2="149.5" stroke="rgba(255,255,255,0.05)"/>
<line y1="199.5" x2="400.005" y2="199.5" stroke="rgba(255,255,255,0.05)"/>
<line y1="249.5" x2="400.005" y2="249.5" stroke="rgba(255,255,255,0.05)"/>
<line y1="299.5" x2="400.005" y2="299.5" stroke="rgba(255,255,255,0.05)"/>
<line y1="349.5" x2="400.005" y2="349.5" stroke="rgba(255,255,255,0.05)"/>
<line x1="99.5" y1="400.006" x2="99.5" y2="-0.000640869" stroke="rgba(255,255,255,0.05)"/>
<line x1="149.5" y1="400.007" x2="149.5" y2="-3.05176e-05" stroke="rgba(255,255,255,0.05)"/>
<line x1="199.5" y1="400.007" x2="199.5" y2="-3.05176e-05" stroke="rgba(255,255,255,0.05)"/>
<line x1="249.5" y1="400.007" x2="249.5" y2="-3.05176e-05" stroke="rgba(255,255,255,0.05)"/>
<line x1="299.5" y1="400.007" x2="299.5" y2="-3.05176e-05" stroke="rgba(255,255,255,0.05)"/>
<line x1="349.5" y1="400.007" x2="349.5" y2="-3.05176e-05" stroke="rgba(255,255,255,0.05)"/>
</g>
<rect x="0.5" y="0.5" width="399" height="399" stroke="rgba(255,255,255,0.05)"/>
<defs>
<clipPath id="clip0_6_2">
<rect width="400" height="400" fill="rgba(255,255,255,0.05)"/>
</clipPath>
</defs>
</svg>
